<svg t="1716282070939" class="icon" viewBox="0 0 1024 1024" version="1.1" xmlns="http://www.w3.org/2000/svg" p-id="1472" width="200" height="200"><path d="M511.99324 511.99324m-511.99324 0a511.99324 511.99324 0 1 0 1023.986481 0 511.99324 511.99324 0 1 0-1023.986481 0Z" fill="#0068FF" p-id="1473"></path><path d="M653.379137 751.651664c-18.305269 8.949844-59.485365 18.562138-111.562098 18.562138-158.961119 0-239.455633-106.803269-239.455633-248.689384 0-175.251997 116.469641-263.033468 250.730814-263.033468 51.373724 0 89.538994 10.071954 106.154337 19.359782l-20.928033 86.929749c-19.102914-8.449626-45.222397-16.074568-79.764466-16.074568-78.77755 0-142.359294 52.238966-142.359294 166.707736 0 105.600042 54.821172 163.463079 142.656721 163.463079 29.039674 0 60.742669-5.826862 79.926699-13.519401z" fill="#FFFFFF" p-id="1474"></path></svg>